# xmcd
#
# Track frame offsets:
#	150
#	16975
#	33994
#	49093
#	64462
#	81882
#	99593
#	112675
#	129907
#	147938
#	162877
#	178520
#	198417
#	214506
#
# Disc length: 3106
#
# Revision: 3
# Processed by: cddbd v1.5.1PL0 Copyright (c) Steve Scherf et al.
# Submitted via: VisiTrax 2.9.9.209 - For more info visit www.synapsa.com
# Normalized: r2:DSETVAR1
#
DISCID=b60c200e
DTITLE=Various Artist - CDX  343 may 2004
DYEAR=2004
DGENRE=Country
TTITLE0=Jedd Hughes - High lonesome
TTITLE1=Dierks Bentley - How am I doin'
TTITLE2=Dierks Bentley - How am I doin' (short version)
TTITLE3=Big and Rich - Save a horse (ride a cowboy)
TTITLE4=Sara Evans - Suds in the bucket
TTITLE5=Clint Black - The boogie man
TTITLE6=Travis Tritt - The girl's gone wild
TTITLE7=Jimmy Fortune - Elizabeth
TTITLE8=Mountain Heart - Man in the mirror
TTITLE9=K. Wilder - Greatest surprise
TTITLE10=Ron Williams - I'm tired of being something (that means nothing to you)
TTITLE11=Kevin Montgomery - I wish I were blind
TTITLE12=Danni O'Neill - Take me away
TTITLE13=Fanny Grace - Wouldn't have to
EXTD=
EXTT0=
EXTT1=
EXTT2=
EXTT3=
EXTT4=
EXTT5=
EXTT6=
EXTT7=
EXTT8=
EXTT9=
EXTT10=
EXTT11=
EXTT12=
EXTT13=
PLAYORDER=
